<svg width="784" height="219" viewBox="0 0 784 219" fill="none" xmlns="http://www.w3.org/2000/svg">
<path d="M280 10H359.444V32.0056H303.23V58.4479H346.853V80.4535H303.23V112.22H361.217V134.225H280V10Z" fill="white"/>
<path d="M375.29 110.09H398.343V134.225H375.29V110.09Z" fill="white"/>
<path d="M420.097 10H464.252C493.689 10 508.408 23.369 508.408 50.107C508.408 63.9493 504.684 74.2423 497.236 80.9859C489.788 87.7296 478.971 91.1014 464.784 91.1014H442.796V134.225H420.097V10ZM462.124 72.1127C469.927 72.1127 475.72 70.338 479.503 66.7887C483.404 63.2394 485.355 57.7972 485.355 50.462C485.355 43.1268 483.404 37.7437 479.503 34.3127C475.602 30.7634 469.631 28.9887 461.592 28.9887H442.796V72.1127H462.124Z" fill="white"/>
<path d="M520.979 45.493H541.549L542.081 54.8986C544.682 51.9408 547.992 49.338 552.011 47.0901C556.149 44.8423 560.464 43.7183 564.956 43.7183C566.375 43.7183 567.675 43.8366 568.858 44.0732L567.262 65.7239C565.015 65.1324 562.474 64.8366 559.636 64.8366C555.972 64.8366 552.602 65.7239 549.529 67.4986C546.455 69.1549 544.268 71.2253 542.967 73.7099V134.225H520.979V45.493Z" fill="white"/>
<path d="M597.624 136C590.294 136 584.147 133.634 579.181 128.901C574.334 124.051 571.911 117.544 571.911 109.38C571.911 101.69 574.689 95.538 580.245 90.9239C585.802 86.1915 592.363 82.8789 599.929 80.9859C607.495 78.9746 614.766 77.8507 621.741 77.6141C621.504 72.4085 620.145 68.6817 617.662 66.4338C615.298 64.1859 611.337 63.062 605.781 63.062C601.88 63.062 598.038 63.5944 594.254 64.6592C590.59 65.7239 586.334 67.4394 581.487 69.8056L579.536 51.8817C590.294 46.6761 601.052 44.0732 611.81 44.0732C622.213 44.0732 630.134 46.9127 635.572 52.5916C641.129 58.2704 643.907 67.3211 643.907 79.7437V103.701C643.907 108.197 644.084 111.451 644.439 113.462C644.912 115.355 645.621 116.597 646.567 117.189C647.631 117.662 649.345 117.899 651.709 117.899H654.547L652.596 136H644.616C639.769 136 635.69 135.113 632.38 133.338C629.07 131.445 626.528 128.901 624.755 125.707C621.918 128.901 618.017 131.445 613.051 133.338C608.204 135.113 603.062 136 597.624 136ZM606.845 119.141C609.091 119.141 611.633 118.608 614.47 117.544C617.307 116.361 619.79 114.763 621.918 112.752V92.5211C614.825 92.8761 608.559 94.4141 603.121 97.1352C597.683 99.8563 594.964 103.642 594.964 108.493C594.964 112.161 595.91 114.882 597.801 116.656C599.693 118.313 602.707 119.141 606.845 119.141Z" fill="white"/>
<path d="M694.31 136C686.507 136 680.596 133.752 676.577 129.256C672.558 124.642 670.548 119.141 670.548 112.752V63.5944H657.957L659.908 45.493H670.548V25.9718L692.537 23.6648V45.493H712.043V63.5944H692.537V103.701C692.537 108.434 692.773 111.746 693.246 113.639C693.837 115.414 694.96 116.597 696.615 117.189C698.389 117.662 701.521 117.899 706.014 117.899H712.043L710.092 136H694.31Z" fill="white"/>
<path d="M755.267 136C747.465 136 741.554 133.752 737.534 129.256C733.515 124.642 731.505 119.141 731.505 112.752V63.5944H718.914L720.865 45.493H731.505V25.9718L753.494 23.6648V45.493H773V63.5944H753.494V103.701C753.494 108.434 753.73 111.746 754.203 113.639C754.794 115.414 755.917 116.597 757.572 117.189C759.346 117.662 762.478 117.899 766.971 117.899H773L771.049 136H755.267Z" fill="white"/>
<path d="M278.08 181H283.12L295.08 199.08V181H300.2V209H296L283.2 189.8V209H278.08V181ZM330.081 209.56C327.441 209.56 325.068 208.96 322.961 207.76C320.881 206.533 319.241 204.827 318.041 202.64C316.868 200.427 316.281 197.88 316.281 195C316.281 192.12 316.868 189.587 318.041 187.4C319.241 185.187 320.881 183.48 322.961 182.28C325.068 181.053 327.441 180.44 330.081 180.44C332.721 180.44 335.081 181.053 337.161 182.28C339.268 183.48 340.908 185.187 342.081 187.4C343.281 189.587 343.881 192.12 343.881 195C343.881 197.88 343.281 200.427 342.081 202.64C340.908 204.827 339.268 206.533 337.161 207.76C335.081 208.96 332.721 209.56 330.081 209.56ZM330.081 204.6C332.801 204.6 334.881 203.72 336.321 201.96C337.788 200.2 338.521 197.88 338.521 195C338.521 192.12 337.788 189.8 336.321 188.04C334.881 186.28 332.801 185.4 330.081 185.4C327.361 185.4 325.268 186.28 323.801 188.04C322.361 189.8 321.641 192.12 321.641 195C321.641 197.88 322.361 200.2 323.801 201.96C325.268 203.72 327.361 204.6 330.081 204.6ZM364.884 185.96H356.964V181H377.924V185.96H370.004V209H364.884V185.96ZM405.603 202.36H395.403L393.083 209H388.123L398.083 181H402.923L412.883 209H407.923L405.603 202.36ZM404.003 197.88L400.523 187.88L397.003 197.88H404.003ZM427.683 181H437.923C440.91 181 443.256 181.72 444.963 183.16C446.696 184.573 447.563 186.68 447.563 189.48C447.563 191.427 447.15 193.027 446.323 194.28C445.496 195.507 444.323 196.493 442.803 197.24L449.123 209H443.403L438.003 198.6H437.803H432.803V209H427.683V181ZM436.563 194.32C440.323 194.32 442.203 192.8 442.203 189.76C442.203 188.293 441.776 187.187 440.923 186.44C440.07 185.667 438.683 185.28 436.763 185.28H432.803V194.32H436.563ZM485.253 181L475.413 197.68V209H470.293V197.68L460.453 181H466.053L472.853 193.08L479.653 181H485.253ZM528.298 209.56C526.725 209.56 525.032 209.347 523.218 208.92C521.432 208.493 520.032 208.027 519.018 207.52L519.618 202.08C523.138 203.787 526.232 204.64 528.898 204.64C530.312 204.64 531.418 204.373 532.218 203.84C533.018 203.28 533.418 202.467 533.418 201.4C533.418 200.6 533.192 199.947 532.738 199.44C532.312 198.907 531.685 198.467 530.858 198.12C530.032 197.747 528.712 197.24 526.898 196.6C525.192 196.013 523.778 195.4 522.658 194.76C521.538 194.093 520.645 193.253 519.978 192.24C519.338 191.2 519.018 189.933 519.018 188.44C519.018 186.04 519.898 184.107 521.658 182.64C523.418 181.173 525.938 180.44 529.218 180.44C530.765 180.44 532.298 180.613 533.818 180.96C535.365 181.307 536.778 181.733 538.058 182.24L537.538 187.48C535.885 186.76 534.365 186.227 532.978 185.88C531.618 185.507 530.258 185.32 528.898 185.32C527.378 185.32 526.218 185.573 525.418 186.08C524.618 186.587 524.218 187.32 524.218 188.28C524.218 189.027 524.432 189.64 524.858 190.12C525.285 190.6 525.858 191 526.578 191.32C527.325 191.64 528.418 192.027 529.858 192.48C533.085 193.493 535.432 194.667 536.898 196C538.392 197.307 539.138 199.107 539.138 201.4C539.138 203.587 538.378 205.493 536.858 207.12C535.338 208.747 532.485 209.56 528.298 209.56ZM554.982 181H572.902V185.96H560.222V191.92H570.062V196.88H560.222V204.04H573.302V209H554.982V181ZM589.316 181H599.556C602.543 181 604.889 181.72 606.596 183.16C608.329 184.573 609.196 186.68 609.196 189.48C609.196 191.427 608.783 193.027 607.956 194.28C607.129 195.507 605.956 196.493 604.436 197.24L610.756 209H605.036L599.636 198.6H599.436H594.436V209H589.316V181ZM598.196 194.32C601.956 194.32 603.836 192.8 603.836 189.76C603.836 188.293 603.409 187.187 602.556 186.44C601.703 185.667 600.316 185.28 598.396 185.28H594.436V194.32H598.196ZM647.44 181L637.48 209H632.64L622.68 181H627.84L635.04 201.6L642.28 181H647.44ZM662.125 181H667.245V209H662.125V181ZM697.694 209.56C694.868 209.56 692.361 208.96 690.174 207.76C688.014 206.56 686.334 204.867 685.134 202.68C683.934 200.467 683.334 197.907 683.334 195C683.334 192.12 683.948 189.587 685.174 187.4C686.428 185.187 688.148 183.48 690.334 182.28C692.548 181.053 695.054 180.44 697.854 180.44C700.548 180.44 702.961 180.987 705.094 182.08L704.534 186.96C703.388 186.453 702.281 186.067 701.214 185.8C700.174 185.507 699.041 185.36 697.814 185.36C694.961 185.36 692.761 186.24 691.214 188C689.694 189.76 688.934 192.093 688.934 195C688.934 197.907 689.681 200.24 691.174 202C692.694 203.76 694.868 204.64 697.694 204.64C698.948 204.64 700.094 204.507 701.134 204.24C702.201 203.973 703.334 203.573 704.534 203.04L705.094 207.92C702.774 209.013 700.308 209.56 697.694 209.56ZM720.989 181H738.909V185.96H726.229V191.92H736.069V196.88H726.229V204.04H739.309V209H720.989V181ZM763.444 209.56C761.87 209.56 760.177 209.347 758.364 208.92C756.577 208.493 755.177 208.027 754.164 207.52L754.764 202.08C758.284 203.787 761.377 204.64 764.044 204.64C765.457 204.64 766.564 204.373 767.364 203.84C768.164 203.28 768.564 202.467 768.564 201.4C768.564 200.6 768.337 199.947 767.884 199.44C767.457 198.907 766.83 198.467 766.004 198.12C765.177 197.747 763.857 197.24 762.044 196.6C760.337 196.013 758.924 195.4 757.804 194.76C756.684 194.093 755.79 193.253 755.124 192.24C754.484 191.2 754.164 189.933 754.164 188.44C754.164 186.04 755.044 184.107 756.804 182.64C758.564 181.173 761.084 180.44 764.364 180.44C765.91 180.44 767.444 180.613 768.964 180.96C770.51 181.307 771.924 181.733 773.204 182.24L772.684 187.48C771.03 186.76 769.51 186.227 768.124 185.88C766.764 185.507 765.404 185.32 764.044 185.32C762.524 185.32 761.364 185.573 760.564 186.08C759.764 186.587 759.364 187.32 759.364 188.28C759.364 189.027 759.577 189.64 760.004 190.12C760.43 190.6 761.004 191 761.724 191.32C762.47 191.64 763.564 192.027 765.004 192.48C768.23 193.493 770.577 194.667 772.044 196C773.537 197.307 774.284 199.107 774.284 201.4C774.284 203.587 773.524 205.493 772.004 207.12C770.484 208.747 767.63 209.56 763.444 209.56Z" fill="white" fill-opacity="0.6"/>
<rect x="5" y="5" width="209" height="209" fill="white" fill-opacity="0.38" stroke="white" stroke-width="10"/>
<path fill-rule="evenodd" clip-rule="evenodd" d="M109.109 45C92.0104 45 74.8782 48.0042 58.7303 54.027C58.1408 54.1589 57.596 54.4428 57.1503 54.8506C56.7046 55.2584 56.3734 55.7758 56.1898 56.3514L45.7574 88.027L36.1898 117.216C35.3105 117.285 34.4907 117.687 33.8979 118.34C33.3051 118.993 32.9842 119.848 33.0006 120.73C33.3856 132.924 45.4901 141.919 59.4871 141.919C73.4839 141.919 85.6425 132.924 86.0276 120.73C86.0432 119.839 85.7148 118.977 85.1107 118.322C84.5066 117.668 83.6733 117.272 82.7844 117.216L73.2168 88.027L63.8114 59.5405C77.2849 54.8383 91.4609 52.3255 105.649 51.973V152.135C100.574 152.367 95.9935 153.08 92.2979 154.243C90.0386 154.955 88.0738 155.799 86.4601 157C84.8463 158.201 83.3249 160.059 83.3249 162.514C83.3249 164.97 84.8469 166.83 86.4601 168.027C88.0733 169.225 90.0392 170.074 92.2979 170.784C96.8152 172.203 102.657 173 109.109 173C115.552 173 121.35 172.203 125.865 170.784C128.123 170.074 130.09 169.225 131.703 168.027C133.316 166.83 134.838 164.97 134.838 162.514C134.838 160.059 133.317 158.201 131.703 157C130.09 155.799 128.178 154.955 125.92 154.243C122.227 153.08 117.636 152.367 112.568 152.135V51.973C126.75 52.3272 140.884 54.8402 154.352 59.5405L144.947 88.027L135.379 117.216C134.5 117.285 133.68 117.687 133.087 118.34C132.494 118.993 132.173 119.848 132.19 120.73C132.575 132.924 144.679 141.919 158.676 141.919C172.673 141.919 184.832 132.924 185.217 120.73C185.232 119.839 184.904 118.977 184.3 118.322C183.696 117.668 182.862 117.272 181.974 117.216L172.406 88.027L161.974 56.3514C161.79 55.7758 161.459 55.2584 161.013 54.8506C160.567 54.4428 160.023 54.1589 159.433 54.027C143.284 48.0035 126.208 45 109.109 45V45ZM59.4871 68.4595L66.6222 90.1892L75.4871 117.162H43.4871L52.3519 90.1892L59.4871 68.4595ZM158.676 68.4595L165.811 90.1892L174.676 117.162H142.676L151.541 90.1892L158.676 68.4595Z" fill="white"/>
</svg>
